<svg xmlns="http://www.w3.org/2000/svg" version="1.1" xmlns:xlink="http://www.w3.org/1999/xlink" xmlns:svgjs="http://svgjs.dev/svgjs" width="1000" height="1000" viewBox="0 0 1000 1000"><rect width="1000" height="1000" fill="#ffffff"></rect><g transform="matrix(0.7,0,0,0.7,149.57577498806802,439.3894680218184)"><svg viewBox="0 0 396 69" data-background-color="#ffbe79" preserveAspectRatio="xMidYMid meet" height="174" width="1000" xmlns="http://www.w3.org/2000/svg" xmlns:xlink="http://www.w3.org/1999/xlink"><g id="tight-bounds" transform="matrix(1,0,0,1,0.23999014960725162,-0.16398434733554268)"><svg viewBox="0 0 395.52 69.32796869467106" height="69.32796869467106" width="395.52"><g><svg viewBox="0 0 395.52 69.32796869467106" height="69.32796869467106" width="395.52"><g><svg viewBox="0 0 395.52 69.32796869467106" height="69.32796869467106" width="395.52"><g id="textblocktransform"><svg viewBox="0 0 395.52 69.32796869467106" height="69.32796869467106" width="395.52" id="textblock"><g><svg viewBox="0 0 395.52 50.25291479820628" height="50.25291479820628" width="395.52"><g transform="matrix(1,0,0,1,0,0)"><svg width="395.52" viewBox="3.25 -33.5 269.5799865722656 34" height="50.25291479820628" data-palette-color="#374151"><g class="undefined-text-0" data-fill-palette-color="primary" id="text-0"><path d="M14.75 0L3.25 0 3.25-1.25 7.25-2.1 7.25-30.9 3.25-31.75 3.25-33 13.25-33Q19.15-33 22.73-30.85 26.3-28.7 26.3-24.05L26.3-24.05Q26.3-21.3 24.58-19.18 22.85-17.05 19.78-15.8 16.7-14.55 12.6-14.55L12.6-14.55 10.25-14.55 10.25-2.1 14.75-1.25 14.75 0ZM13.65-31.25L10.25-31.25 10.25-16.3 14-16.3Q16.6-16.3 18.63-17.23 20.65-18.15 21.8-19.83 22.95-21.5 22.95-23.65L22.95-23.65Q22.95-27.65 20.43-29.45 17.9-31.25 13.65-31.25L13.65-31.25ZM43.2 0L32.4 0 32.4-1.25 36.3-2.1 36.3-30.9 32.4-31.75 32.4-33 43.2-33 43.2-31.75 39.3-30.9 39.3-2.1 43.2-1.25 43.2 0ZM60.4 0L49.95 0 49.95-1.25 53.85-2.1 53.85-30.9 49.95-31.75 49.95-33 56.5-33 76.85-5.4 76.85-30.9 72.55-31.75 72.55-33 82.65-33 82.65-31.75 78.75-30.9 78.75 0.25 77.65 0.25 55.85-28.8 55.85-2.25 60.4-1.25 60.4 0ZM105.04 0.5L105.04 0.5Q100.54 0.5 97.02-1.7 93.49-3.9 91.44-7.75 89.39-11.6 89.39-16.5L89.39-16.5Q89.39-21.4 91.44-25.25 93.49-29.1 97.02-31.3 100.54-33.5 105.04-33.5L105.04-33.5Q109.59-33.5 113.12-31.3 116.64-29.1 118.69-25.25 120.74-21.4 120.74-16.5L120.74-16.5Q120.74-11.6 118.69-7.75 116.64-3.9 113.12-1.7 109.59 0.5 105.04 0.5ZM106.09-1L106.09-1Q109.49-1 112.12-2.73 114.74-4.45 116.19-7.58 117.64-10.7 117.64-14.95L117.64-14.95Q117.64-20.1 115.84-23.95 114.04-27.8 110.99-29.93 107.94-32.05 104.19-32.05L104.19-32.05Q100.79-32.05 98.14-30.35 95.49-28.65 93.99-25.53 92.49-22.4 92.49-18.15L92.49-18.15Q92.49-13 94.32-9.13 96.14-5.25 99.22-3.13 102.29-1 106.09-1ZM147.64 0L135.64 0 135.64-1.25 140.14-2.1 140.14-15.65 129.29-30.9 125.99-31.75 125.99-33 136.39-33 136.39-31.75 133.04-31.05 133.04-30.85 142.54-17.25 151.19-30.85 151.19-31.05 147.59-31.75 147.59-33 156.89-33 156.89-31.75 153.79-31.2 143.14-15.5 143.14-2.1 147.64-1.25 147.64 0ZM173.09 0L161.89 0 161.89-1.25 165.79-2.1 165.79-30.9 161.89-31.75 161.89-33 173.09-33 173.09-31.75 168.79-30.9 168.79-17.9 187.69-17.9 187.69-30.9 183.39-31.75 183.39-33 194.59-33 194.59-31.75 190.69-30.9 190.69-2.1 194.59-1.25 194.59 0 183.39 0 183.39-1.25 187.69-2.1 187.69-16.15 168.79-16.15 168.79-2.1 173.09-1.25 173.09 0ZM212.14 0L201.34 0 201.34-1.25 205.24-2.1 205.24-30.9 201.34-31.75 201.34-33 212.14-33 212.14-31.75 208.24-30.9 208.24-2.1 212.14-1.25 212.14 0ZM229.63 0L218.88 0 218.88-1.25 222.88-2.1 222.88-30.9 218.88-31.75 218.88-33 228.78-33Q234.03-33 237.06-30.83 240.08-28.65 240.08-24.85L240.08-24.85Q240.08-21.85 238.16-19.75 236.23-17.65 233.08-16.65L233.08-16.65 242.73-1.9 246.03-1.25 246.03 0 240.23 0 230.23-15.65 225.88-15.65 225.88-2.15 229.63-1.25 229.63 0ZM229.13-31.25L229.13-31.25 225.88-31.25 225.88-17.4 229.43-17.4Q232.58-17.4 234.66-19.33 236.73-21.25 236.73-24.2L236.73-24.2Q236.73-27.45 234.68-29.35 232.63-31.25 229.13-31.25ZM272.83 0L249.03 0 249.03-1.25 252.93-2.1 252.93-30.9 249.03-31.75 249.03-33 271.43-33 271.43-24.9 270.43-24.9 268.33-31.25 255.93-31.25 255.93-17.9 265.03-17.9 266.28-22.05 267.28-22.05 267.28-12.1 266.28-12.1 265.03-16.15 255.93-16.15 255.93-1.75 269.73-1.75 271.83-8.6 272.83-8.6 272.83 0Z" fill="#000000" data-fill-palette-color="primary"></path></g></svg></g></svg></g><g transform="matrix(1,0,0,1,0,62.116421912107626)"><svg viewBox="0 0 232.20979200000002 7.2115467825634365" height="7.2115467825634365" width="232.20979200000002"><g transform="matrix(1,0,0,1,0,0)"><svg width="232.20979200000002" viewBox="0 -35.79999923706055 1152.6600341796875 35.79999923706055" height="7.2115467825634365" data-palette-color="#374151"><path d="M0-2.15L4.85-2.15 4.85-34.95 29.4-34.95 29.4-29.4 10.75-29.4 10.75-20.15 27.5-20.15 27.5-14.9 10.75-14.9 10.75-5.55 30-5.55 30-2.15 34.85-2.15 34.85 0 0 0 0-2.15ZM77-2.15L81.85-2.15 81.85 0 71.1 0 71.1-27.3 58.9-3.05 55.6-3.05 43.45-27.3 43.45 0 32.7 0 32.7-2.15 37.55-2.15 37.55-34.95 46.75-34.95 57.3-13 67.85-34.95 77-34.95 77-2.15ZM92.6-2.15L116.05-2.15 116.05 0 81.85 0 81.85-2.15 86.7-2.15 86.7-34.95 98.7-34.95Q106.65-34.95 110.3-31.9 113.95-28.85 113.95-22.5 113.95-16.15 110.22-13.2 106.5-10.25 98.8-10.25L98.8-10.25 92.6-10.25 92.6-2.15ZM99.45-15.6Q104.35-15.6 106.12-17.48 107.9-19.35 107.9-22.98 107.9-26.6 105.65-28.1 103.4-29.6 98.6-29.6L98.6-29.6 92.6-29.6 92.6-15.6 99.45-15.6ZM146.59-2.15L158.04-2.15 158.04 0 116.04 0 116.04-2.15 127.49-2.15Q123.39-4.5 121.02-8.6 118.64-12.7 118.64-17.75L118.64-17.75Q118.64-25.45 123.94-30.63 129.24-35.8 137.04-35.8 144.84-35.8 150.14-30.63 155.44-25.45 155.44-17.75L155.44-17.75Q155.44-12.75 153.07-8.6 150.69-4.45 146.59-2.15L146.59-2.15ZM145.82-26.7Q142.24-30.4 137.04-30.4 131.84-30.4 128.27-26.7 124.69-23 124.69-17.73 124.69-12.45 128.27-8.75 131.84-5.05 137.04-5.05 142.24-5.05 145.82-8.75 149.39-12.45 149.39-17.73 149.39-23 145.82-26.7ZM198.39-2.15L210.44-2.15 210.44 0 191.79 0 184.44-23.95 184.04-23.95 176.69 0 158.04 0 158.04-2.15 170.09-2.15 158.64-34.95 164.99-34.95 173.79-9.8 181.59-34.95 186.89-34.95 194.69-9.8 203.49-34.95 209.84-34.95 198.39-2.15ZM210.44-2.15L215.29-2.15 215.29-34.95 239.84-34.95 239.84-29.4 221.19-29.4 221.19-20.15 237.94-20.15 237.94-14.9 221.19-14.9 221.19-5.55 240.44-5.55 240.44-2.15 245.29-2.15 245.29 0 210.44 0 210.44-2.15ZM275.94-2.15L280.79-2.15 280.79 0 269.99 0 261.64-11.75 253.89-11.75 253.89 0 243.14 0 243.14-2.15 247.99-2.15 247.99-34.95 260.99-34.95Q268.99-34.95 272.44-32.25 275.89-29.55 275.89-23.6L275.89-23.6Q275.89-14.95 268.34-12.7L268.34-12.7 275.94-2.15ZM261.24-17.1Q266.24-17.1 268.04-18.65 269.84-20.2 269.84-23.63 269.84-27.05 267.99-28.33 266.14-29.6 261.39-29.6L261.39-29.6 253.89-29.6 253.89-17.1 261.24-17.1ZM279.53-2.15L293.23-2.15 293.23 0 279.53 0 279.53-2.15ZM293.23-2.15L305.83-2.15 305.83-13.8 292.83-34.95 299.28-34.95 308.83-19.05 318.38-34.95 324.83-34.95 311.83-13.8 311.83-2.15 324.43-2.15 324.43 0 293.23 0 293.23-2.15ZM354.98-2.15L366.43-2.15 366.43 0 324.43 0 324.43-2.15 335.88-2.15Q331.78-4.5 329.4-8.6 327.03-12.7 327.03-17.75L327.03-17.75Q327.03-25.45 332.33-30.63 337.63-35.8 345.43-35.8 353.23-35.8 358.53-30.63 363.83-25.45 363.83-17.75L363.83-17.75Q363.83-12.75 361.45-8.6 359.08-4.45 354.98-2.15L354.98-2.15ZM354.2-26.7Q350.63-30.4 345.43-30.4 340.23-30.4 336.65-26.7 333.08-23 333.08-17.73 333.08-12.45 336.65-8.75 340.23-5.05 345.43-5.05 350.63-5.05 354.2-8.75 357.78-12.45 357.78-17.73 357.78-23 354.2-26.7ZM394.43-2.15L404.83-2.15 404.83 0 366.43 0 366.43-2.15 376.78-2.15Q370.82-6.3 370.82-15.3L370.82-15.3 370.82-34.95 376.73-34.95 376.73-15.55Q376.73-10.75 379.13-7.95 381.53-5.15 385.63-5.15 389.73-5.15 392.13-7.95 394.53-10.75 394.53-15.55L394.53-15.55 394.53-34.95 400.43-34.95 400.43-15.3Q400.43-6.25 394.43-2.15L394.43-2.15ZM437.62-2.15L442.47-2.15 442.47 0 431.67 0 423.32-11.75 415.57-11.75 415.57 0 404.82 0 404.82-2.15 409.67-2.15 409.67-34.95 422.67-34.95Q430.67-34.95 434.12-32.25 437.57-29.55 437.57-23.6L437.57-23.6Q437.57-14.95 430.02-12.7L430.02-12.7 437.62-2.15ZM422.92-17.1Q427.92-17.1 429.72-18.65 431.52-20.2 431.52-23.63 431.52-27.05 429.67-28.33 427.82-29.6 423.07-29.6L423.07-29.6 415.57-29.6 415.57-17.1 422.92-17.1ZM441.22-2.15L454.92-2.15 454.92 0 441.22 0 441.22-2.15ZM476.57-2.15L489.92-2.15 489.92 0 454.92 0 454.92-2.15 468.22-2.15 455.07-34.95 461.67-34.95 472.42-8.85 483.17-34.95 489.77-34.95 476.57-2.15ZM489.92-2.15L494.77-2.15 494.77-34.95 500.67-34.95 500.67-2.15 505.52-2.15 505.52 0 489.92 0 489.92-2.15ZM530.76-2.15L537.01-2.15 537.01 0 505.51 0 505.51-2.15 511.91-2.15Q509.51-3.4 507.51-5.25L507.51-5.25 511.21-9.7Q516.51-5.1 522.21-5.1L522.21-5.1Q525.06-5.1 526.74-6.33 528.41-7.55 528.41-9.58 528.41-11.6 526.84-12.73 525.26-13.85 521.41-14.78 517.56-15.7 515.56-16.48 513.56-17.25 512.01-18.5L512.01-18.5Q508.91-20.85 508.91-25.7 508.91-30.55 512.44-33.18 515.96-35.8 521.16-35.8L521.16-35.8Q524.51-35.8 527.81-34.7 531.11-33.6 533.51-31.6L533.51-31.6 530.36-27.15Q528.81-28.55 526.16-29.45 523.51-30.35 520.94-30.35 518.36-30.35 516.71-29.3 515.06-28.25 515.06-26.13 515.06-24 516.71-22.88 518.36-21.75 523.74-20.45 529.11-19.15 531.84-16.8 534.56-14.45 534.56-10.2L534.56-10.2Q534.56-5.05 530.76-2.15L530.76-2.15ZM537.01-2.15L541.86-2.15 541.86-34.95 547.76-34.95 547.76-2.15 552.61-2.15 552.61 0 537.01 0 537.01-2.15ZM583.16-2.15L594.61-2.15 594.61 0 552.61 0 552.61-2.15 564.06-2.15Q559.96-4.5 557.58-8.6 555.21-12.7 555.21-17.75L555.21-17.75Q555.21-25.45 560.51-30.63 565.81-35.8 573.61-35.8 581.41-35.8 586.71-30.63 592.01-25.45 592.01-17.75L592.01-17.75Q592.01-12.75 589.63-8.6 587.26-4.45 583.16-2.15L583.16-2.15ZM582.38-26.7Q578.81-30.4 573.61-30.4 568.41-30.4 564.83-26.7 561.26-23 561.26-17.73 561.26-12.45 564.83-8.75 568.41-5.05 573.61-5.05 578.81-5.05 582.38-8.75 585.96-12.45 585.96-17.73 585.96-23 582.38-26.7ZM594.6-2.15L599.45-2.15 599.45-34.95 605.35-34.95 625.65-8.85 625.65-34.95 631.55-34.95 631.55-2.15 636.4-2.15 636.4 0 625.15 0 605.35-25.5 605.35 0 594.6 0 594.6-2.15ZM636.4-2.15L650.1-2.15 650.1 0 636.4 0 636.4-2.15ZM690.45-2.15L702.5-2.15 702.5 0 683.85 0 676.5-23.95 676.1-23.95 668.75 0 650.1 0 650.1-2.15 662.15-2.15 650.7-34.95 657.05-34.95 665.85-9.8 673.65-34.95 678.95-34.95 686.75-9.8 695.55-34.95 701.9-34.95 690.45-2.15ZM702.5-2.15L707.35-2.15 707.35-34.95 713.25-34.95 713.25-2.15 718.1-2.15 718.1 0 702.5 0 702.5-2.15ZM736.14-2.15L748.29-2.15 748.29 0 718.09 0 718.09-2.15 730.24-2.15 730.24-29.55 719.64-29.55 719.64-34.95 746.74-34.95 746.74-29.55 736.14-29.55 736.14-2.15ZM787.14 0L787.14-2.15 782.29-2.15 782.29-34.95 776.39-34.95 776.39-19.8 759.04-19.8 759.04-34.95 753.14-34.95 753.14 0 759.04 0 759.04-14.3 776.39-14.3 776.39 0 787.14 0ZM748.29-2.15L753.14-2.15 753.14 0 748.29 0 748.29-2.15ZM787.14-2.15L800.84-2.15 800.84 0 787.14 0 787.14-2.15ZM800.84-2.15L805.69-2.15 805.69-34.95 830.24-34.95 830.24-29.4 811.59-29.4 811.59-20.15 828.34-20.15 828.34-14.9 811.59-14.9 811.59-5.55 830.84-5.55 830.84-2.15 835.69-2.15 835.69 0 800.84 0 800.84-2.15ZM841.63 0L830.88 0 830.88-2.15 835.68-2.15 846.28-17.95 835.13-34.95 842.43-34.95 850.23-23.15 850.48-23.15 858.28-34.95 865.58-34.95 854.43-17.95 864.98-2.15 869.83-2.15 869.83 0 859.08 0 850.48-13.15 850.23-13.15 841.63 0ZM877.93-2.15L901.38-2.15 901.38 0 867.18 0 867.18-2.15 872.03-2.15 872.03-34.95 884.03-34.95Q891.98-34.95 895.63-31.9 899.28-28.85 899.28-22.5 899.28-16.15 895.56-13.2 891.83-10.25 884.13-10.25L884.13-10.25 877.93-10.25 877.93-2.15ZM884.78-15.6Q889.68-15.6 891.46-17.48 893.23-19.35 893.23-22.98 893.23-26.6 890.98-28.1 888.73-29.6 883.93-29.6L883.93-29.6 877.93-29.6 877.93-15.6 884.78-15.6ZM901.38-2.15L906.23-2.15 906.23-34.95 930.78-34.95 930.78-29.4 912.13-29.4 912.13-20.15 928.88-20.15 928.88-14.9 912.13-14.9 912.13-5.55 931.38-5.55 931.38-2.15 936.23-2.15 936.23 0 901.38 0 901.38-2.15ZM966.88-2.15L971.73-2.15 971.73 0 960.93 0 952.58-11.75 944.83-11.75 944.83 0 934.08 0 934.08-2.15 938.93-2.15 938.93-34.95 951.93-34.95Q959.93-34.95 963.38-32.25 966.83-29.55 966.83-23.6L966.83-23.6Q966.83-14.95 959.28-12.7L959.28-12.7 966.88-2.15ZM952.18-17.1Q957.18-17.1 958.98-18.65 960.78-20.2 960.78-23.63 960.78-27.05 958.93-28.33 957.08-29.6 952.33-29.6L952.33-29.6 944.83-29.6 944.83-17.1 952.18-17.1ZM988.52-2.15L1000.67-2.15 1000.67 0 970.47 0 970.47-2.15 982.62-2.15 982.62-29.55 972.02-29.55 972.02-34.95 999.12-34.95 999.12-29.55 988.52-29.55 988.52-2.15ZM1000.67-2.15L1014.37-2.15 1014.37 0 1000.67 0 1000.67-2.15ZM1041.92-2.15L1053.47-2.15 1053.47 0 1014.37 0 1014.37-2.15 1019.22-2.15 1019.22-34.95 1031.22-34.95Q1040.62-34.95 1045.67-30.38 1050.72-25.8 1050.72-17.5L1050.72-17.5Q1050.72-6.35 1041.92-2.15L1041.92-2.15ZM1044.77-17.5L1044.77-17.5Q1044.77-29.5 1031.02-29.5L1031.02-29.5 1025.12-29.5 1025.12-5.55 1031.67-5.55Q1038.02-5.55 1041.39-8.58 1044.77-11.6 1044.77-17.5ZM1053.47-2.15L1058.32-2.15 1058.32-34.95 1082.87-34.95 1082.87-29.4 1064.22-29.4 1064.22-20.15 1080.97-20.15 1080.97-14.9 1064.22-14.9 1064.22-5.55 1083.47-5.55 1083.47-2.15 1088.32-2.15 1088.32 0 1053.47 0 1053.47-2.15ZM1107.81-2.15L1121.16-2.15 1121.16 0 1086.16 0 1086.16-2.15 1099.46-2.15 1086.31-34.95 1092.91-34.95 1103.66-8.85 1114.41-34.95 1121.01-34.95 1107.81-2.15ZM1146.41-2.15L1152.66-2.15 1152.66 0 1121.16 0 1121.16-2.15 1127.56-2.15Q1125.16-3.4 1123.16-5.25L1123.16-5.25 1126.86-9.7Q1132.16-5.1 1137.86-5.1L1137.86-5.1Q1140.71-5.1 1142.39-6.33 1144.06-7.55 1144.06-9.58 1144.06-11.6 1142.49-12.73 1140.91-13.85 1137.06-14.78 1133.21-15.7 1131.21-16.48 1129.21-17.25 1127.66-18.5L1127.66-18.5Q1124.56-20.85 1124.56-25.7 1124.56-30.55 1128.09-33.18 1131.61-35.8 1136.81-35.8L1136.81-35.8Q1140.16-35.8 1143.46-34.7 1146.76-33.6 1149.16-31.6L1149.16-31.6 1146.01-27.15Q1144.46-28.55 1141.81-29.45 1139.16-30.35 1136.59-30.35 1134.01-30.35 1132.36-29.3 1130.71-28.25 1130.71-26.13 1130.71-24 1132.36-22.88 1134.01-21.75 1139.39-20.45 1144.76-19.15 1147.49-16.8 1150.21-14.45 1150.21-10.2L1150.21-10.2Q1150.21-5.05 1146.41-2.15L1146.41-2.15Z" opacity="1" transform="matrix(1,0,0,1,0,0)" fill="#000000" class="undefined-text-1" data-fill-palette-color="secondary" id="text-1"></path></svg></g></svg></g></svg></g></svg></g></svg></g><defs></defs></svg><rect width="395.52" height="69.32796869467106" fill="none" stroke="none" visibility="hidden"></rect></g></svg></g></svg>